<svg width="42" height="41" viewBox="0 0 42 41" fill="none" xmlns="http://www.w3.org/2000/svg">
<g clip-path="url(#clip0_266_305)">
<path d="M21.0002 0C9.39709 0 0 9.4054 0 21.0188C0 30.32 6.01125 38.1753 14.3586 40.9589C15.4083 41.1434 15.8012 40.5129 15.8012 39.9611C15.8012 39.4622 15.7758 37.808 15.7758 36.0459C10.5002 37.0184 9.13615 34.759 8.71639 33.5783C8.47883 32.9732 7.45648 31.107 6.56152 30.608C5.8275 30.2133 4.77717 29.2408 6.53609 29.2155C8.19049 29.1901 9.37223 30.7397 9.76664 31.3702C11.6565 34.5503 14.6753 33.655 15.8825 33.1027C16.0652 31.7375 16.6164 30.8179 17.2211 30.2915C12.5479 29.7672 7.66713 27.954 7.66713 19.9137C7.66713 17.629 8.47982 15.7374 9.8184 14.266C9.60824 13.7397 8.87422 11.5849 10.0286 8.69504C10.0286 8.69504 11.787 8.1433 15.8043 10.8498C17.4846 10.3763 19.2682 10.1406 21.0541 10.1406C22.8384 10.1406 24.6241 10.3783 26.3039 10.8498C30.3212 8.11744 32.0781 8.69504 32.0781 8.69504C33.2339 11.5844 32.4978 13.7397 32.2882 14.266C33.6268 15.7374 34.4411 17.6015 34.4411 19.9137C34.4411 27.9793 29.5323 29.7652 24.8597 30.2915C25.6211 30.9495 26.277 32.2105 26.277 34.1809C26.277 36.9919 26.2516 39.2509 26.2516 39.9601C26.2516 40.5119 26.646 41.1699 27.6942 40.96C35.9903 38.1753 42 30.2926 42 21.0188C42 9.4054 32.6029 0 21.0002 0Z" fill="white"/>
</g>
<defs>
<clipPath id="clip0_266_305">
<rect width="42" height="41" fill="white"/>
</clipPath>
</defs>
</svg>
