<svg width="200" height="27" viewBox="0 0 200 27" fill="none" xmlns="http://www.w3.org/2000/svg">
<path d="M22.6784 0.761658C22.6784 0.878836 22.612 1.03507 22.4753 1.27724C22.3386 1.51941 8.50767 25.4902 8.26941 25.8769C8.03115 26.2635 7.60931 26.5565 7.14841 26.5565H0.762193C0.340351 26.5565 0.0200638 26.2596 0.000534105 25.8417C-0.00727778 25.7011 0.070841 25.5214 0.219267 25.2636C0.367693 25.0058 14.5306 0.472619 14.5306 0.472619C14.765 0.183579 15.1204 0 15.5188 0H21.9168C22.3386 0 22.6784 0.339817 22.6784 0.761658Z" fill="white"/>
<path d="M24.8892 17.7759C24.8892 17.9634 24.8462 18.1431 24.772 18.3032L24.6509 18.5102L20.6981 25.3613L20.62 25.4941C20.4833 25.6855 20.2567 25.8065 20.0068 25.8065C19.7568 25.8065 19.538 25.6855 19.3974 25.5019L19.3076 25.3417L15.3938 18.5649L15.2181 18.2603C15.1556 18.1118 15.1243 17.9517 15.1243 17.7876C15.1243 17.6236 15.1556 17.4595 15.2181 17.315L15.3938 17.0104L19.2998 10.2414L19.4091 10.0461C19.5498 9.87421 19.7646 9.76094 20.0068 9.76094C20.2489 9.76094 20.4677 9.87812 20.6044 10.0578L20.7098 10.2336L24.5962 16.9674L24.7993 17.3267C24.8579 17.4674 24.8853 17.6197 24.8853 17.7798L24.8892 17.7759Z" fill="white"/>
<path d="M39.9934 25.9237C39.9661 26.2362 39.6536 26.5565 39.2318 26.5565H32.8651C32.4276 26.5565 32.0409 26.3338 31.8144 25.9979C31.8144 25.9979 31.6386 25.6894 31.8144 25.994C31.9902 26.2987 21.6668 8.45245 21.4012 7.95639C21.2879 7.74157 21.2176 7.56189 21.2176 7.35097C21.2176 7.07365 21.3348 6.74555 21.6238 6.22606C22.0144 5.51909 24.4283 1.36317 24.6001 1.06632C24.772 0.769465 24.9634 0.70697 25.2173 0.70697C25.4712 0.70697 25.6782 0.800713 25.8344 1.07022C25.9906 1.33973 39.7122 25.1035 39.8489 25.3456C39.9856 25.5878 40.0091 25.8222 39.9974 25.9237H39.9934Z" fill="white"/>
<g clip-path="url(#clip0_0_1)">
<path d="M59.5106 14.1617L56.5881 17.0822C56.3524 17.3178 56.3524 17.6997 56.5881 17.9352L59.5106 20.8558C59.7463 21.0913 60.1284 21.0913 60.3641 20.8558L63.2866 17.9352C63.5223 17.6997 63.5223 17.3178 63.2866 17.0822L60.3641 14.1617C60.1284 13.9261 59.7463 13.9261 59.5106 14.1617Z" fill="white"/>
<path d="M81.0383 3.42592L78.5082 5.95429C78.3062 6.15618 78.3062 6.4835 78.5082 6.68539L81.0383 9.21376C81.2403 9.41565 81.5678 9.41565 81.7699 9.21376L84.2999 6.68539C84.5019 6.4835 84.5019 6.15618 84.2999 5.95429L81.7699 3.42592C81.5678 3.22403 81.2403 3.22403 81.0383 3.42592Z" fill="white"/>
<path d="M165.846 3.4289L163.324 5.94966C163.122 6.15154 163.122 6.47886 163.324 6.68075L165.846 9.20151C166.048 9.40339 166.376 9.4034 166.578 9.20151L169.1 6.68075C169.302 6.47887 169.302 6.15154 169.1 5.94966L166.578 3.4289C166.376 3.22701 166.048 3.22701 165.846 3.4289Z" fill="white"/>
<path d="M82.9979 10.9196H79.8133C79.3163 10.9196 78.9134 11.3222 78.9134 11.8189V22.3736C78.9134 22.8702 79.3163 23.2729 79.8133 23.2729H82.9979C83.4949 23.2729 83.8978 22.8702 83.8978 22.3736V11.8189C83.8978 11.3222 83.4949 10.9196 82.9979 10.9196Z" fill="white"/>
<path d="M140.494 7.33855V4.19908C140.494 3.69051 140.081 3.27824 139.573 3.27824L119.268 3.27824C118.76 3.27824 118.347 3.69051 118.347 4.19908V7.33855C118.347 7.84712 118.76 8.2594 119.268 8.2594H139.573C140.081 8.2594 140.494 7.84712 140.494 7.33855Z" fill="white"/>
<path d="M168.703 14.3014V11.1619C168.703 10.6534 168.291 10.2411 167.782 10.2411L151.993 10.2411C151.484 10.2411 151.072 10.6534 151.072 11.1619V14.3014C151.072 14.81 151.484 15.2222 151.993 15.2222H167.782C168.291 15.2222 168.703 14.81 168.703 14.3014Z" fill="white"/>
<path d="M140.499 22.3574V19.2179C140.499 18.7094 140.087 18.2971 139.578 18.2971H119.274C118.765 18.2971 118.352 18.7094 118.352 19.2179V22.3574C118.352 22.866 118.765 23.2782 119.274 23.2782H139.578C140.087 23.2782 140.499 22.866 140.499 22.3574Z" fill="white"/>
<path d="M140.494 14.3014V11.1619C140.494 10.6534 140.081 10.2411 139.573 10.2411L119.268 10.2411C118.76 10.2411 118.347 10.6534 118.347 11.1619V14.3014C118.347 14.81 118.76 15.2222 119.268 15.2222H139.573C140.081 15.2222 140.494 14.81 140.494 14.3014Z" fill="white"/>
<path d="M113.389 7.33856V4.19908C113.389 3.69052 112.977 3.27824 112.468 3.27824L92.1639 3.27824C91.655 3.27824 91.2424 3.69052 91.2424 4.19908V7.33856C91.2424 7.84712 91.655 8.2594 92.1639 8.2594H112.468C112.977 8.2594 113.389 7.84712 113.389 7.33856Z" fill="white"/>
<path d="M113.389 22.3574V19.2179C113.389 18.7094 112.977 18.2971 112.468 18.2971H92.1639C91.655 18.2971 91.2424 18.7094 91.2424 19.2179V22.3574C91.2424 22.866 91.655 23.2782 92.1639 23.2782H112.468C112.977 23.2782 113.389 22.866 113.389 22.3574Z" fill="white"/>
<path d="M113.389 14.3014V11.1619C113.389 10.6534 112.977 10.2411 112.468 10.2411L92.1639 10.2411C91.655 10.2411 91.2424 10.6534 91.2424 11.1619V14.3014C91.2424 14.81 91.655 15.2222 92.1639 15.2222H112.468C112.977 15.2222 113.389 14.81 113.389 14.3014Z" fill="white"/>
<path d="M95.3054 12.002H92.1639C91.655 12.002 91.2424 12.4143 91.2424 12.9228V22.352C91.2424 22.8606 91.655 23.2729 92.1639 23.2729H95.3054C95.8143 23.2729 96.2269 22.8606 96.2269 22.352V12.9228C96.2269 12.4143 95.8143 12.002 95.3054 12.002Z" fill="white"/>
<path d="M139.578 12.002H136.436C135.928 12.002 135.515 12.4143 135.515 12.9228V22.352C135.515 22.8606 135.928 23.2729 136.436 23.2729H139.578C140.087 23.2729 140.499 22.8606 140.499 22.352V12.9228C140.499 12.4143 140.087 12.002 139.578 12.002Z" fill="white"/>
<path d="M148.695 3.27824H145.672C145.131 3.27824 144.692 3.71704 144.692 4.25832V22.2928C144.692 22.8341 145.131 23.2729 145.672 23.2729H148.695C149.237 23.2729 149.676 22.8341 149.676 22.2928V4.25832C149.676 3.71704 149.237 3.27824 148.695 3.27824Z" fill="white"/>
<path d="M167.787 12.7344H164.646C164.137 12.7344 163.724 13.1466 163.724 13.6552V22.3574C163.724 22.866 164.137 23.2782 164.646 23.2782H167.787C168.296 23.2782 168.709 22.866 168.709 22.3574V13.6552C168.709 13.1466 168.296 12.7344 167.787 12.7344Z" fill="white"/>
<path d="M72.1939 9.83182C72.4498 9.83182 72.6573 9.62448 72.6573 9.36871C72.6573 9.11294 72.4498 8.90559 72.1939 8.90559C71.9379 8.90559 71.7305 9.11294 71.7305 9.36871C71.7305 9.62448 71.9379 9.83182 72.1939 9.83182Z" fill="white"/>
<path d="M74.0098 23.2782H69.2409C69.0254 23.2782 68.7559 23.1221 68.6051 22.8582C68.4542 22.5943 61.1634 9.97722 61.1042 9.86952C61.0449 9.76182 61.0287 9.60027 61.1042 9.47103C61.1796 9.34179 63.5452 5.22224 63.6314 5.08761C63.7931 4.83452 64.0248 4.96914 64.1056 5.10915C64.1864 5.24916 74.1337 22.449 74.2846 22.7236C74.4355 22.9982 74.1984 23.2782 74.0098 23.2782Z" fill="white"/>
<path d="M62.7958 3.75751C62.7958 3.75751 51.8894 22.6482 51.7277 22.9174C51.566 23.1867 51.3613 23.2782 51.1242 23.2782H46.3715C46.1775 23.2782 45.8811 23.0844 46.0481 22.799C46.2152 22.5136 56.9762 3.85983 57.1217 3.6175C57.2672 3.37517 57.4935 3.27824 57.709 3.27824H62.4779C62.6719 3.27824 62.9359 3.44518 62.7958 3.75751Z" fill="white"/>
<path d="M185.174 14.1647L182.252 17.0853C182.016 17.3208 182.016 17.7027 182.252 17.9382L185.174 20.8588C185.41 21.0943 185.792 21.0943 186.028 20.8588L188.95 17.9382C189.186 17.7027 189.186 17.3208 188.95 17.0853L186.028 14.1647C185.792 13.9292 185.41 13.9292 185.174 14.1647Z" fill="white"/>
<path d="M199.677 23.2782H194.908C194.692 23.2782 194.423 23.1221 194.272 22.8582C194.121 22.5943 186.83 9.97722 186.771 9.86952C186.712 9.76182 186.696 9.60027 186.771 9.47103C186.846 9.34179 189.212 5.22224 189.298 5.08761C189.46 4.83452 189.692 4.96914 189.772 5.10915C189.853 5.24916 199.801 22.449 199.951 22.7236C200.102 22.9982 199.865 23.2782 199.677 23.2782Z" fill="white"/>
<path d="M188.463 3.75751C188.463 3.75751 177.557 22.6482 177.395 22.9121C177.233 23.1759 177.029 23.2729 176.791 23.2729H172.039C171.845 23.2729 171.548 23.079 171.715 22.7936C171.882 22.5082 182.643 3.85983 182.794 3.6175C182.945 3.36979 183.166 3.27824 183.382 3.27824H188.151C188.345 3.27824 188.609 3.44518 188.468 3.75751H188.463Z" fill="white"/>
</g>
<defs>
<clipPath id="clip0_0_1">
<rect width="154" height="20" fill="white" transform="translate(46 3.27824)"/>
</clipPath>
</defs>
</svg>
